<svg width="118" height="28" viewBox="0 0 118 28" fill="none" xmlns="http://www.w3.org/2000/svg">
<path d="M3.79111 28C4.29744 28 4.59748 27.8221 4.69125 27.4664C4.71 27.4102 4.73813 27.3728 4.77563 27.3541C5.05693 27.2043 5.19757 27.0077 5.19757 26.7643L5.16944 26.5396C4.98191 25.8094 4.88815 25.0792 4.88815 24.349C4.88815 23.8248 4.91628 23.3099 4.97254 22.8044C4.97254 22.6921 5.00067 22.6359 5.05693 22.6359C5.16944 22.6921 5.26321 22.7389 5.33822 22.7763C5.41323 22.8138 5.47886 22.8606 5.53512 22.9167C5.64764 23.0291 5.76016 23.1227 5.87267 23.1976C7.57917 24.3022 9.20129 24.8546 10.739 24.8546C12.633 24.8546 13.9739 24.115 14.7615 22.6359C14.8365 22.4861 14.874 22.3457 14.874 22.2146C14.874 21.9712 14.7427 21.7934 14.4802 21.681C14.2364 21.5687 13.9739 21.5125 13.6926 21.5125C13.3925 21.5125 13.1019 21.5968 12.8206 21.7653C12.5393 21.9151 12.258 22.0929 11.9767 22.2989C11.6954 22.5048 11.4141 22.7014 11.1328 22.8887C10.9828 22.9448 10.8328 22.9729 10.6828 22.9729C9.76387 22.8044 8.95751 22.4393 8.26365 21.8776C8.00111 21.7091 7.83234 21.5593 7.75733 21.4283C9.57635 20.9789 11.0766 20.0241 12.258 18.5637C14.7709 15.3995 16.0273 11.8047 16.0273 7.77934V7.69508C16.0273 4.28753 14.724 2.4995 12.1173 2.33099C11.1797 2.33099 10.3077 2.60247 9.50134 3.14544C8.69497 3.6884 8.01049 4.35306 7.44791 5.13942C6.47276 6.43129 5.76016 7.61083 5.31009 8.67803C4.86002 9.74524 4.41933 11.0746 3.98802 12.666L3.95989 12.4413C4.0724 9.55801 4.38183 6.70277 4.88815 3.87563L5.05693 3.08927C5.20695 2.39652 5.31946 1.67569 5.39448 0.92678C5.39448 0.308927 4.91628 0 3.95989 0C3.54733 0.0187226 3.20978 0.0842525 2.94724 0.196589C2.70345 0.308926 2.49717 0.561684 2.3284 0.954864C2.14087 1.46038 1.97209 1.99398 1.82207 2.55567C0.94069 6.45002 0.5 10.569 0.5 14.9127C0.5 17.2156 0.659399 19.4156 0.978196 21.5125C1.18448 23.0853 1.5314 24.6205 2.01898 26.1184C2.169 26.5303 2.34715 26.8485 2.55343 27.0732C2.66595 27.1668 2.75033 27.2979 2.80659 27.4664C2.93786 27.8221 3.26604 28 3.79111 28ZM6.15396 20.1364C5.87267 20.1364 5.61951 20.0334 5.39448 19.8275C5.31946 19.79 5.27258 19.7432 5.25383 19.6871L5.28196 19.5747C5.52575 17.0097 6.00394 14.454 6.71655 11.9077C7.44791 9.34269 8.68559 7.12404 10.4296 5.25175C10.7484 4.89602 11.1047 4.59645 11.4985 4.35306C11.5735 4.29689 11.6392 4.26881 11.6954 4.26881C11.7704 4.26881 11.8361 4.32498 11.8923 4.43731C12.4174 5.33601 12.6799 6.54363 12.6799 8.06018C12.4174 13.209 10.5609 17.0846 7.11036 19.6871L6.77281 19.8837C6.58528 20.0522 6.379 20.1364 6.15396 20.1364Z" fill="#4CAD66"/>
<path d="M20.7185 25.4724C21.8249 25.4724 22.9032 25.098 23.9534 24.349C24.741 23.6563 25.4254 22.8793 26.0068 22.0181C26.9632 20.5951 27.7414 19.1067 28.3415 17.5527C28.9603 15.9799 29.5229 14.3885 30.0293 12.7783L30.2824 12.0481L30.3105 11.8796C30.3105 11.7111 30.2168 11.5801 30.0293 11.4865C29.8605 11.3928 29.673 11.346 29.4667 11.346C29.2604 11.346 29.0541 11.3928 28.8478 11.4865C28.6603 11.5801 28.5103 11.7299 28.3978 11.9358C28.304 12.1418 28.2009 12.3664 28.0883 12.6098L26.3725 17.0191C25.7349 18.8913 24.891 20.6606 23.8408 22.327C23.4283 22.9074 22.9876 23.4035 22.5188 23.8154C22.0499 24.2273 21.628 24.4333 21.253 24.4333C20.8216 24.4333 20.4372 24.0963 20.0997 23.4223C19.3308 21.9244 18.9464 20.333 18.9464 18.6479V17.6088C18.9464 17.459 18.9932 17.3842 19.087 17.3842L19.7059 17.4122C20.4372 17.4122 21.1123 17.2531 21.7312 16.9348C22.3687 16.5978 22.9032 16.0923 23.3345 15.4183C23.6908 14.8191 23.9534 14.2762 24.1221 13.7894C24.2909 13.2838 24.4034 12.6941 24.4597 12.0201C24.4597 10.9529 23.9534 10.1946 22.9407 9.74523C22.3219 9.50184 21.7124 9.38014 21.1123 9.38014C19.8746 9.38014 18.8338 9.82949 17.99 10.7282C17.1648 11.6269 16.546 12.7596 16.1334 14.1264C15.7021 15.4744 15.4865 16.8318 15.4865 18.1986C15.4865 19.3407 15.6459 20.5109 15.9647 21.7091C16.2647 22.8887 16.8554 23.8154 17.7368 24.4895C18.6369 25.1448 19.6308 25.4724 20.7185 25.4724ZM20.184 16.2327C19.9028 16.2327 19.6215 16.0923 19.3402 15.8114C19.2464 15.7178 19.1995 15.6429 19.1995 15.5868V15.5306C19.4621 14.0702 20.0434 12.7783 20.9435 11.655C21.0748 11.4865 21.1779 11.4022 21.253 11.4022C21.403 11.4022 21.5811 11.6269 21.7874 12.0762C22.0124 12.5256 22.125 13.0124 22.125 13.5366C22.1062 14.3791 21.7499 15.1374 21.0561 15.8114C20.7185 16.0923 20.4278 16.2327 20.184 16.2327Z" fill="#4CAD66"/>
<path d="M29.5438 25.2197C30.3502 25.2197 30.7815 24.9482 30.8377 24.4052C31.0253 22.4393 31.3816 20.6045 31.9067 18.9007C32.563 16.2608 33.4819 13.7145 34.6633 11.2618C35.0384 10.4754 35.5259 9.69843 36.126 8.93079C36.126 9.19291 35.9854 10.0729 35.7041 11.5707C35.3478 13.3307 35.0759 15.1093 34.8884 16.9067C34.8133 17.431 34.7758 17.9646 34.7758 18.5075C34.7758 19.6871 35.0196 20.5764 35.5072 21.1755C36.0135 21.7747 36.8668 22.1117 38.0669 22.1866C39.1359 22.1866 40.036 21.7559 40.7673 20.8947C41.9488 19.4717 42.9145 17.9271 43.6647 16.2608L44.1428 15.0251C44.9867 13.003 45.4087 11.9077 45.4087 11.7392C45.4087 11.6269 45.343 11.5239 45.2118 11.4303C45.0992 11.3367 44.9398 11.2899 44.7336 11.2899C44.3585 11.2899 44.1053 11.4397 43.9741 11.7392C43.8428 12.0388 43.7209 12.329 43.6084 12.6098C42.9333 14.2762 42.2113 15.9144 41.4424 17.5246C40.9174 18.7416 40.1485 19.7807 39.1359 20.6419C38.8546 20.8853 38.6577 21.007 38.5451 21.007C38.3951 21.007 38.3107 20.7917 38.292 20.3611C38.1982 19.8556 38.1513 19.35 38.1513 18.8445C38.1513 17.7961 38.2826 16.4106 38.5451 14.6881C38.8264 12.9468 38.9671 11.5801 38.9671 10.5878C38.9671 9.85757 38.8452 9.13674 38.6014 8.42527C38.4326 8.01337 38.1888 7.71381 37.87 7.52658C37.5512 7.33935 37.2137 7.24574 36.8574 7.24574C36.3136 7.24574 35.8635 7.43296 35.5072 7.80742C34.457 9.06185 33.6038 10.335 32.9474 11.6269C32.2911 12.9188 31.7004 14.323 31.1753 15.8395C31.1565 15.8395 31.1472 15.8582 31.1472 15.8957C31.1472 15.9144 31.1378 15.9425 31.119 15.9799C31.1003 15.9987 31.0628 16.0267 31.0065 16.0642L31.4285 11.318C31.5035 10.5316 31.5597 9.72651 31.5972 8.90271C31.5972 8.22869 31.0909 7.89167 30.0783 7.89167C29.6282 7.92912 29.2625 8.01337 28.9812 8.14443C28.7187 8.25677 28.5499 8.53761 28.4749 8.98696C27.7998 12.8439 27.4623 16.4855 27.4623 19.9117C27.4623 20.6419 27.4904 21.3534 27.5466 22.0461C27.5841 22.7202 27.706 23.3942 27.9123 24.0682C28.2124 24.8358 28.7562 25.2197 29.5438 25.2197Z" fill="#4CAD66"/>
<path d="M51.9926 23.9559C52.874 23.9559 53.596 23.6376 54.1586 23.001C54.7399 22.3457 55.2181 21.5406 55.5932 20.5858C55.9682 19.6122 56.3058 18.6292 56.6058 17.6369L57.084 16.1765C57.5341 14.8098 57.9373 13.4243 58.2936 12.0201L58.3217 11.7673C58.3217 11.6175 58.2655 11.4865 58.1529 11.3741C58.0404 11.2618 57.9091 11.2056 57.7591 11.2056C57.3466 11.2056 57.0278 11.5426 56.8027 12.2167C56.5777 12.8719 56.362 13.5272 56.1558 14.1825L54.9743 17.7212C54.543 19.1254 54.0086 20.4921 53.371 21.8215C53.2397 22.0461 53.0616 22.2802 52.8365 22.5236C52.6302 22.7482 52.4427 22.8606 52.2739 22.8606C51.9926 22.8606 51.7676 22.4768 51.5988 21.7091C51.3926 20.8666 51.2894 20.0241 51.2894 19.1815C51.4394 13.7145 51.9926 8.60314 52.949 3.84754C53.1553 2.89268 53.296 1.91909 53.371 0.92678C53.371 0.66466 53.2585 0.468071 53.0334 0.33701C52.8271 0.187228 52.574 0.112337 52.2739 0.112337C51.8426 0.112337 51.4957 0.224674 51.2332 0.449347C50.8206 0.823804 50.4737 1.46974 50.1924 2.38716C49.4048 4.72751 48.8891 7.1334 48.6453 9.60481C48.6265 9.77332 48.5609 9.85757 48.4484 9.85757C48.2608 9.83885 48.0733 9.82013 47.8858 9.8014C47.717 9.76396 47.492 9.74523 47.2107 9.74523C46.0855 9.74523 45.0916 10.1571 44.229 10.9809C42.0349 13.1528 40.9379 15.671 40.9379 18.5356C40.9379 18.8352 40.9566 19.1535 40.9941 19.4905C41.0691 20.333 41.3692 20.9883 41.8943 21.4564C42.4194 21.9244 43.0757 22.1585 43.8633 22.1585C45.3448 22.1585 46.4418 21.4376 47.1544 19.996C47.5295 19.2096 47.8389 18.3952 48.0827 17.5527C48.139 17.5901 48.1671 17.6556 48.1671 17.7492C48.1671 18.6479 48.289 19.5841 48.5328 20.5577C48.7765 21.5125 49.1797 22.3176 49.7423 22.9729C50.3049 23.6282 51.055 23.9559 51.9926 23.9559ZM44.3978 20.9789C44.3415 20.9789 44.2946 20.9228 44.2571 20.8104C44.0883 20.4547 44.004 20.0896 44.004 19.7151C44.0415 18.4045 44.1915 17.1595 44.454 15.9799C44.7353 14.8004 45.2979 13.6302 46.1418 12.4694C46.3481 12.1886 46.5356 11.9639 46.7044 11.7954C46.8731 11.6269 47.1075 11.4677 47.4076 11.318H47.4357C47.642 11.318 47.8014 11.3835 47.9139 11.5145C48.0264 11.6269 48.0827 11.7673 48.0827 11.9358C48.0827 12.0481 47.4638 14.1077 46.2262 18.1143C46.0574 18.676 45.8511 19.2003 45.6073 19.6871C45.3635 20.1739 45.0166 20.5858 44.5665 20.9228L44.3978 20.9789Z" fill="#4CAD66"/>
<path d="M59.973 25.4724C61.0794 25.4724 62.1577 25.098 63.2078 24.349C63.9955 23.6563 64.6799 22.8793 65.2613 22.0181C66.2177 20.5951 66.9959 19.1067 67.596 17.5527C68.2148 15.9799 68.7774 14.3885 69.2837 12.7783L69.5369 12.0481L69.565 11.8796C69.565 11.7111 69.4713 11.5801 69.2837 11.4865C69.115 11.3928 68.9274 11.346 68.7212 11.346C68.5149 11.346 68.3086 11.3928 68.1023 11.4865C67.9148 11.5801 67.7648 11.7299 67.6522 11.9358C67.5585 12.1418 67.4553 12.3664 67.3428 12.6098L65.6269 17.0191C64.9893 18.8913 64.1455 20.6606 63.0953 22.327C62.6828 22.9074 62.2421 23.4035 61.7732 23.8154C61.3044 24.2273 60.8825 24.4333 60.5074 24.4333C60.0761 24.4333 59.6917 24.0963 59.3541 23.4223C58.5853 21.9244 58.2008 20.333 58.2008 18.6479V17.6088C58.2008 17.459 58.2477 17.3842 58.3415 17.3842L58.9603 17.4122C59.6917 17.4122 60.3668 17.2531 60.9856 16.9348C61.6232 16.5978 62.1577 16.0923 62.589 15.4183C62.9453 14.8191 63.2078 14.2762 63.3766 13.7894C63.5454 13.2838 63.6579 12.6941 63.7142 12.0201C63.7142 10.9529 63.2078 10.1946 62.1952 9.74523C61.5763 9.50184 60.9669 9.38014 60.3668 9.38014C59.1291 9.38014 58.0883 9.82949 57.2445 10.7282C56.4193 11.6269 55.8005 12.7596 55.3879 14.1264C54.9566 15.4744 54.741 16.8318 54.741 18.1986C54.741 19.3407 54.9004 20.5109 55.2191 21.7091C55.5192 22.8887 56.1099 23.8154 56.9913 24.4895C57.8914 25.1448 58.8853 25.4724 59.973 25.4724ZM59.4385 16.2327C59.1572 16.2327 58.8759 16.0923 58.5947 15.8114C58.5009 15.7178 58.454 15.6429 58.454 15.5868V15.5306C58.7165 14.0702 59.2979 12.7783 60.198 11.655C60.3293 11.4865 60.4324 11.4022 60.5074 11.4022C60.6575 11.4022 60.8356 11.6269 61.0419 12.0762C61.2669 12.5256 61.3794 13.0124 61.3794 13.5366C61.3607 14.3791 61.0044 15.1374 60.3105 15.8114C59.973 16.0923 59.6823 16.2327 59.4385 16.2327Z" fill="#4CAD66"/>
<path d="M70.1485 25.4724C71.0486 25.4724 71.4987 25.1822 71.4987 24.6018L71.4706 23.8435C71.4706 21.7466 71.7518 19.3407 72.3144 16.6259C72.6145 15.0344 73.1114 13.5272 73.8053 12.1043L73.8897 11.9077C74.0397 11.6456 74.2366 11.3648 74.4804 11.0652L74.4522 11.655C74.4522 12.4226 74.5273 13.1715 74.6773 13.9017C74.8461 14.6319 75.1461 15.231 75.5774 15.6991C76.0275 16.1672 76.6838 16.4012 77.5465 16.4012C78.0528 16.4012 78.5404 16.3169 79.0092 16.1484C79.478 15.9612 79.8624 15.6991 80.1625 15.3621C80.9876 14.3885 81.6814 13.3119 82.244 12.1324C82.2815 12.0201 82.3003 11.9264 82.3003 11.8516C82.3003 11.5894 82.1034 11.449 81.7096 11.4303C81.2783 11.4303 80.9501 11.6362 80.7251 12.0481C80.4438 12.46 80.1156 12.9094 79.7405 13.3962C79.3842 13.883 79.0373 14.3136 78.6998 14.6881C78.3622 15.0438 78.0903 15.2217 77.884 15.2217C77.6777 15.2217 77.4996 14.894 77.3495 14.2387C77.162 13.4336 77.0308 12.6005 76.9557 11.7392C76.937 11.3273 76.8901 10.9248 76.8151 10.5316C76.6276 9.6329 76.0462 9.18355 75.0711 9.18355C74.6773 9.18355 74.3491 9.28653 74.0866 9.49248C73.8428 9.6797 73.6365 9.9231 73.4677 10.2227C72.7364 11.3086 72.1738 12.4694 71.78 13.7051C71.3674 15.0157 71.0299 16.3357 70.7673 17.665L70.5704 18.6479C70.4391 17.9739 70.3735 16.9535 70.3735 15.5868C70.3735 13.5834 70.6267 11.0465 71.133 7.97593V7.8355C71.133 7.51722 70.9642 7.28318 70.6267 7.1334C70.3079 6.98362 69.9985 6.90873 69.6984 6.90873C69.2859 6.90873 68.9108 7.03042 68.5732 7.27382C68.2357 7.51722 68.0013 7.86359 67.87 8.31294C67.5137 9.56737 67.2887 10.7656 67.1949 11.9077C67.0824 13.0498 67.0168 14.3136 66.998 15.6991C66.998 17.9646 67.2699 20.2862 67.8138 22.664C68.2638 24.5363 69.0421 25.4724 70.1485 25.4724Z" fill="#4CAD66"/>
<path d="M83.527 25.2758C84.5771 25.2758 85.496 24.9201 86.2836 24.2086C87.7464 22.8231 88.4777 21.2972 88.4777 19.6309C88.4777 19.4437 88.5621 19.35 88.7309 19.35C90.3249 18.6573 91.6938 17.7586 92.8377 16.654C94.0004 15.5493 94.8443 14.1357 95.3694 12.4132L95.3975 12.1324C95.3975 11.9452 95.3131 11.8047 95.1443 11.7111C94.9756 11.5988 94.7693 11.5426 94.5255 11.5426C94.0567 11.5426 93.7754 11.683 93.6816 11.9639C93.4378 12.6379 93.1378 13.2932 92.7815 13.9298C91.8626 15.9519 90.3436 17.4122 88.2246 18.3109L88.0558 18.339C87.9995 18.339 87.9526 18.3109 87.9151 18.2548C87.4838 17.8054 86.9681 17.5527 86.368 17.4965C85.5429 17.3842 84.7178 17.2437 83.8927 17.0752L83.6958 17.0471C83.3207 16.9722 83.0957 16.7944 83.0207 16.5135C82.9456 16.214 82.9081 15.8957 82.9081 15.5587C82.9081 15.3714 82.9269 15.1936 82.9644 15.0251C83.2269 13.4149 83.8552 11.9826 84.8491 10.7282L84.8772 10.672C85.121 10.2788 85.3179 10.0822 85.4679 10.0822C85.5804 10.0822 85.7211 10.2227 85.8898 10.5035C86.0774 10.7844 86.2368 11.1307 86.368 11.5426C86.5181 11.9545 86.5931 12.3664 86.5931 12.7783C86.5931 13.4149 86.4712 14.0515 86.2274 14.6881C86.1711 14.8191 86.143 14.9315 86.143 15.0251C86.143 15.1749 86.2368 15.2872 86.4243 15.3621C86.6118 15.437 86.8087 15.4744 87.015 15.4744C87.5026 15.4744 87.8964 15.2591 88.1964 14.8285C88.5152 14.3791 88.759 13.8455 88.9278 13.2277C89.0966 12.5911 89.1903 11.9733 89.2091 11.3741C89.2091 9.82012 88.3652 8.79037 86.6775 8.28485C86.2649 8.20996 85.9086 8.17252 85.6085 8.17252C82.7581 8.17252 80.8078 10.101 79.7577 13.9579C79.5889 14.4634 79.5045 14.997 79.5045 15.5587C79.5045 17.0191 80.2546 17.9178 81.7548 18.2548C82.6737 18.4233 83.602 18.5075 84.5396 18.5075L85.4679 18.5637C85.6554 18.5824 85.7773 18.7228 85.8336 18.985C85.8336 19.116 85.8242 19.1815 85.8055 19.1815L84.9897 19.4905C83.752 19.9024 82.6925 20.4921 81.8111 21.2598C81.286 21.784 81.0235 22.3738 81.0235 23.0291C81.0235 23.6844 81.2673 24.2273 81.7548 24.658C82.2424 25.0699 82.8331 25.2758 83.527 25.2758ZM83.4707 23.675C83.4332 23.675 83.4051 23.6563 83.3863 23.6189C83.2551 23.4504 83.1894 23.2163 83.1894 22.9167C83.1894 22.3925 83.3957 21.9712 83.8083 21.653C84.2396 21.3347 84.7365 21.0445 85.2991 20.7823L85.5523 20.67C85.1397 21.8683 84.5021 22.8512 83.6395 23.6189L83.4707 23.675Z" fill="#4CAD66"/>
<path d="M97.0573 25.4724C98.1637 25.4724 99.242 25.098 100.292 24.349C101.08 23.6563 101.764 22.8793 102.346 22.0181C103.302 20.5951 104.08 19.1067 104.68 17.5527C105.299 15.9799 105.862 14.3885 106.368 12.7783L106.621 12.0481L106.649 11.8796C106.649 11.7111 106.556 11.5801 106.368 11.4865C106.199 11.3928 106.012 11.346 105.806 11.346C105.599 11.346 105.393 11.3928 105.187 11.4865C104.999 11.5801 104.849 11.7299 104.737 11.9358C104.643 12.1418 104.54 12.3664 104.427 12.6098L102.711 17.0191C102.074 18.8913 101.23 20.6606 100.18 22.327C99.7671 22.9074 99.3264 23.4035 98.8576 23.8154C98.3888 24.2273 97.9668 24.4333 97.5918 24.4333C97.1605 24.4333 96.776 24.0963 96.4385 23.4223C95.6696 21.9244 95.2852 20.333 95.2852 18.6479V17.6088C95.2852 17.459 95.3321 17.3842 95.4258 17.3842L96.0447 17.4122C96.776 17.4122 97.4511 17.2531 98.07 16.9348C98.7076 16.5978 99.242 16.0923 99.6733 15.4183C100.03 14.8191 100.292 14.2762 100.461 13.7894C100.63 13.2838 100.742 12.6941 100.799 12.0201C100.799 10.9529 100.292 10.1946 99.2795 9.74523C98.6607 9.50184 98.0512 9.38014 97.4511 9.38014C96.2135 9.38014 95.1727 9.82949 94.3288 10.7282C93.5037 11.6269 92.8848 12.7596 92.4723 14.1264C92.041 15.4744 91.8253 16.8318 91.8253 18.1986C91.8253 19.3407 91.9847 20.5109 92.3035 21.7091C92.6035 22.8887 93.1943 23.8154 94.0756 24.4895C94.9758 25.1448 95.9697 25.4724 97.0573 25.4724ZM96.5229 16.2327C96.2416 16.2327 95.9603 16.0923 95.679 15.8114C95.5852 15.7178 95.5384 15.6429 95.5384 15.5868V15.5306C95.8009 14.0702 96.3822 12.7783 97.2824 11.655C97.4136 11.4865 97.5168 11.4022 97.5918 11.4022C97.7418 11.4022 97.92 11.6269 98.1262 12.0762C98.3513 12.5256 98.4638 13.0124 98.4638 13.5366C98.445 14.3791 98.0887 15.1374 97.3949 15.8114C97.0573 16.0923 96.7667 16.2327 96.5229 16.2327Z" fill="#4CAD66"/>
<path d="M107.908 25.4724C109.014 25.4724 110.093 25.098 111.143 24.349C111.93 23.6563 112.615 22.8793 113.196 22.0181C114.153 20.5951 114.931 19.1067 115.531 17.5527C116.15 15.9799 116.712 14.3885 117.219 12.7783L117.472 12.0481L117.5 11.8796C117.5 11.7111 117.406 11.5801 117.219 11.4865C117.05 11.3928 116.862 11.346 116.656 11.346C116.45 11.346 116.244 11.3928 116.037 11.4865C115.85 11.5801 115.7 11.7299 115.587 11.9358C115.493 12.1418 115.39 12.3664 115.278 12.6098L113.562 17.0191C112.924 18.8913 112.08 20.6606 111.03 22.327C110.618 22.9074 110.177 23.4035 109.708 23.8154C109.239 24.2273 108.817 24.4333 108.442 24.4333C108.011 24.4333 107.627 24.0963 107.289 23.4223C106.52 21.9244 106.136 20.333 106.136 18.6479V17.6088C106.136 17.459 106.183 17.3842 106.276 17.3842L106.895 17.4122C107.627 17.4122 108.302 17.2531 108.921 16.9348C109.558 16.5978 110.093 16.0923 110.524 15.4183C110.88 14.8191 111.143 14.2762 111.312 13.7894C111.48 13.2838 111.593 12.6941 111.649 12.0201C111.649 10.9529 111.143 10.1946 110.13 9.74523C109.511 9.50184 108.902 9.38014 108.302 9.38014C107.064 9.38014 106.023 9.82949 105.179 10.7282C104.354 11.6269 103.735 12.7596 103.323 14.1264C102.892 15.4744 102.676 16.8318 102.676 18.1986C102.676 19.3407 102.835 20.5109 103.154 21.7091C103.454 22.8887 104.045 23.8154 104.926 24.4895C105.826 25.1448 106.82 25.4724 107.908 25.4724ZM107.373 16.2327C107.092 16.2327 106.811 16.0923 106.53 15.8114C106.436 15.7178 106.389 15.6429 106.389 15.5868V15.5306C106.652 14.0702 107.233 12.7783 108.133 11.655C108.264 11.4865 108.367 11.4022 108.442 11.4022C108.592 11.4022 108.771 11.6269 108.977 12.0762C109.202 12.5256 109.314 13.0124 109.314 13.5366C109.296 14.3791 108.939 15.1374 108.245 15.8114C107.908 16.0923 107.617 16.2327 107.373 16.2327Z" fill="#4CAD66"/>
</svg>
