<svg width="12" height="14" viewBox="0 0 12 14" fill="none" xmlns="http://www.w3.org/2000/svg">
<path d="M5.99996 13.6667C6.73329 13.6667 7.33329 13.0667 7.33329 12.3334H4.66663C4.66663 13.0667 5.26663 13.6667 5.99996 13.6667ZM9.99996 9.66669V6.33335C9.99996 4.28669 8.91329 2.57335 6.99996 2.12002V1.66669C6.99996 1.11335 6.55329 0.666687 5.99996 0.666687C5.44663 0.666687 4.99996 1.11335 4.99996 1.66669V2.12002C3.09329 2.57335 1.99996 4.28002 1.99996 6.33335V9.66669L0.666626 11V11.6667H11.3333V11L9.99996 9.66669ZM8.66663 10.3334H3.33329V6.33335C3.33329 4.68002 4.33996 3.33335 5.99996 3.33335C7.65996 3.33335 8.66663 4.68002 8.66663 6.33335V10.3334Z" fill="#0C1116"/>
</svg>
